<svg width="713" height="120" viewBox="0 0 713 120" fill="none" xmlns="http://www.w3.org/2000/svg">
<path d="M712.929 74.9423H674.397C674.661 78.4612 676.289 81.3203 679.28 83.5196C682.271 85.719 685.746 86.8186 689.705 86.8186C695.951 86.8186 700.613 84.8832 703.692 81.0124L709.63 87.4784C704.352 93.0207 697.446 95.7918 688.913 95.7918C681.875 95.7918 675.981 93.4605 671.23 88.798C666.48 84.1354 664.104 77.9774 664.104 70.3238C664.104 62.8461 666.524 56.776 671.362 52.1134C676.201 47.4509 682.051 45.1196 688.913 45.1196C695.775 45.1196 701.493 47.187 706.067 51.3217C710.642 55.4564 712.929 60.9547 712.929 67.8165V74.9423ZM702.636 66.7609C702.636 62.8021 701.361 59.6791 698.81 57.3918C696.346 55.1045 693.135 53.9609 689.177 53.9609C685.218 53.9609 681.743 55.1485 678.752 57.5238C675.849 59.899 674.397 62.978 674.397 66.7609H702.636Z" fill="white"/>
<path d="M640.94 73.8866V95H630.647V45.9114H640.94V55.6763C642.611 52.5973 644.854 50.0901 647.669 48.1547C650.572 46.2193 653.608 45.2076 656.775 45.1196L656.907 55.5444H656.379C651.364 55.5444 647.537 57.1719 644.898 60.4268C642.259 63.6818 640.94 68.1684 640.94 73.8866Z" fill="white"/>
<path d="M616.116 95H606.747V88.4021C602.613 93.3286 597.158 95.7918 590.384 95.7918C585.194 95.7918 580.927 94.3403 577.584 91.4372C574.329 88.4461 572.702 84.5753 572.702 79.8248C572.702 75.0743 574.461 71.4674 577.98 69.0042C581.499 66.5409 586.338 65.3093 592.496 65.3093H605.956V63.4619C605.956 56.9519 602.305 53.6969 595.003 53.6969C590.428 53.6969 585.678 55.3684 580.751 58.7114L576.133 52.2454C582.203 47.4949 588.977 45.1196 596.454 45.1196C602.525 45.1196 607.319 46.6592 610.838 49.7382C614.357 52.7293 616.116 57.2598 616.116 63.3299V95ZM605.824 72.5671H594.211C586.734 72.5671 582.995 74.8983 582.995 79.5609C582.995 81.9361 583.918 83.7835 585.766 85.1031C587.613 86.3347 590.208 86.9506 593.551 86.9506C596.982 86.9506 599.885 86.0269 602.261 84.1794C604.636 82.244 605.824 79.7368 605.824 76.6578V72.5671Z" fill="white"/>
<path d="M564.929 74.9423H526.398C526.661 78.4612 528.289 81.3203 531.28 83.5196C534.271 85.719 537.746 86.8186 541.705 86.8186C547.951 86.8186 552.613 84.8832 555.692 81.0124L561.63 87.4784C556.352 93.0207 549.446 95.7918 540.913 95.7918C533.875 95.7918 527.981 93.4605 523.23 88.798C518.48 84.1354 516.105 77.9774 516.105 70.3238C516.105 62.8461 518.524 56.776 523.362 52.1134C528.201 47.4509 534.051 45.1196 540.913 45.1196C547.775 45.1196 553.493 47.187 558.068 51.3217C562.642 55.4564 564.929 60.9547 564.929 67.8165V74.9423ZM554.637 66.7609C554.637 62.8021 553.361 59.6791 550.81 57.3918C548.347 55.1045 545.136 53.9609 541.177 53.9609C537.218 53.9609 533.743 55.1485 530.752 57.5238C527.849 59.899 526.398 62.978 526.398 66.7609H554.637Z" fill="white"/>
<path d="M507.548 70.1918C507.548 77.5815 505.261 83.6956 500.686 88.5341C496.112 93.3726 490.657 95.7918 484.323 95.7918C478.077 95.7918 472.491 93.0646 467.565 87.6104V112.946H457.272V45.9114H467.565V54.4887C471.699 48.2427 477.022 45.1196 483.532 45.1196C490.305 45.1196 495.98 47.4509 500.554 52.1134C505.217 56.776 507.548 62.8021 507.548 70.1918ZM481.948 86.5547C486.171 86.5547 489.734 85.0592 492.637 82.0681C495.628 78.989 497.123 75.1183 497.123 70.4557C497.123 65.7932 495.628 61.9224 492.637 58.8433C489.734 55.7643 486.215 54.2248 482.08 54.2248C477.945 54.2248 474.47 55.8083 471.655 58.9753C468.84 62.0543 467.433 65.8811 467.433 70.4557C467.433 75.1183 468.84 78.989 471.655 82.0681C474.47 85.0592 477.901 86.5547 481.948 86.5547Z" fill="white"/>
<path d="M427.412 95.7918C419.495 95.7918 412.369 93.3286 406.035 88.4021L411.05 80.3526C416.68 84.6633 422.222 86.8186 427.676 86.8186C429.964 86.8186 431.767 86.2908 433.087 85.2351C434.494 84.0914 435.198 82.6839 435.198 81.0124C435.198 78.5492 431.943 76.3499 425.433 74.4145C425.257 74.3265 425.037 74.2385 424.773 74.1506C424.597 74.0626 424.465 74.0186 424.377 74.0186C414.173 71.2915 409.07 66.6729 409.07 60.1629C409.07 55.5884 410.786 51.9375 414.217 49.2104C417.735 46.4832 422.354 45.1196 428.072 45.1196C433.703 45.1196 439.069 46.7911 444.171 50.1341L440.344 57.7877C436.386 55.1485 432.031 53.8289 427.281 53.8289C421.738 53.8289 418.967 55.5884 418.967 59.1073C418.967 60.6028 419.495 61.7025 420.551 62.4062C421.694 63.022 423.542 63.6378 426.093 64.2536C429.964 65.3093 433.219 66.365 435.858 67.4207C437.617 68.2124 439.157 69.0481 440.476 69.9279C443.819 72.2152 445.491 75.6901 445.491 80.3526C445.491 84.9272 443.775 88.666 440.344 91.5691C437.001 94.3842 432.691 95.7918 427.412 95.7918Z" fill="white"/>
<path d="M399.054 74.9423H360.523C360.786 78.4612 362.414 81.3203 365.405 83.5196C368.396 85.719 371.871 86.8186 375.83 86.8186C382.076 86.8186 386.738 84.8832 389.817 81.0124L395.755 87.4784C390.477 93.0207 383.571 95.7918 375.038 95.7918C368 95.7918 362.106 93.4605 357.355 88.798C352.605 84.1354 350.23 77.9774 350.23 70.3238C350.23 62.8461 352.649 56.776 357.487 52.1134C362.326 47.4509 368.176 45.1196 375.038 45.1196C381.9 45.1196 387.618 47.187 392.193 51.3217C396.767 55.4564 399.054 60.9547 399.054 67.8165V74.9423ZM388.762 66.7609C388.762 62.8021 387.486 59.6791 384.935 57.3918C382.472 55.1045 379.261 53.9609 375.302 53.9609C371.343 53.9609 367.868 55.1485 364.877 57.5238C361.974 59.899 360.523 62.978 360.523 66.7609H388.762Z" fill="white"/>
<path d="M309.94 95H299.647V26.5134H309.94V66.7608L329.865 45.9114H343.193L324.587 65.3093L344.645 95H331.977L317.461 73.4908L309.94 81.0124V95Z" fill="white"/>
<path d="M285.116 95H275.747V88.4021C271.613 93.3286 266.158 95.7918 259.384 95.7918C254.194 95.7918 249.927 94.3403 246.584 91.4372C243.329 88.4461 241.702 84.5753 241.702 79.8248C241.702 75.0743 243.461 71.4674 246.98 69.0042C250.499 66.5409 255.338 65.3093 261.496 65.3093H274.956V63.4619C274.956 56.9519 271.305 53.6969 264.003 53.6969C259.428 53.6969 254.678 55.3684 249.751 58.7114L245.133 52.2454C251.203 47.4949 257.977 45.1196 265.454 45.1196C271.525 45.1196 276.319 46.6592 279.838 49.7382C283.357 52.7293 285.116 57.2598 285.116 63.3299V95ZM274.824 72.5671H263.211C255.734 72.5671 251.995 74.8983 251.995 79.5609C251.995 81.9361 252.918 83.7835 254.766 85.1031C256.613 86.3347 259.208 86.9506 262.551 86.9506C265.982 86.9506 268.885 86.0269 271.261 84.1794C273.636 82.244 274.824 79.7368 274.824 76.6578V72.5671Z" fill="white"/>
<path d="M196.065 95H185.772V26.5134H196.065V54.7526C197.56 51.7615 199.803 49.4303 202.794 47.7588C205.785 45.9993 208.996 45.1196 212.427 45.1196C218.146 45.1196 222.676 46.8351 226.019 50.266C229.362 53.6969 231.034 58.5794 231.034 64.9134V95H220.609V68.0804C220.609 59.0193 216.87 54.4887 209.392 54.4887C205.61 54.4887 202.443 55.7203 199.891 58.1835C197.34 60.5588 196.065 63.9457 196.065 68.3444V95Z" fill="white"/>
<path d="M137.682 46.7031C137.682 49.4303 138.694 51.4096 140.718 52.6413C142.741 54.1368 147.052 55.6763 153.649 57.2598C160.599 58.9313 165.658 61.2186 168.825 64.1217C172.08 67.0247 173.707 71.2034 173.707 76.6577C173.707 82.376 171.552 86.9945 167.241 90.5134C163.019 94.0323 157.476 95.7918 150.614 95.7918C140.674 95.7918 131.7 92.2729 123.695 85.2351L130.557 77.0536C137.243 82.7718 144.016 85.6309 150.878 85.6309C154.309 85.6309 157.08 84.8832 159.192 83.3876C161.303 81.8041 162.359 79.7808 162.359 77.3175C162.359 74.8543 161.391 72.9189 159.456 71.5114C157.608 70.1038 154.265 68.8282 149.427 67.6846C141.069 65.7492 135.263 63.4619 132.008 60.8227C128.225 57.9196 126.334 53.477 126.334 47.4949C126.334 41.6887 128.445 37.1581 132.668 33.9031C136.891 30.5602 142.301 28.8887 148.899 28.8887C157.784 28.8887 165.394 31.4839 171.728 36.6742L165.922 44.8557C163.986 43.0962 161.391 41.6887 158.136 40.633C154.881 39.4894 151.67 38.9175 148.503 38.9175C145.248 38.9175 142.609 39.6213 140.586 41.0289C138.65 42.3485 137.682 44.2399 137.682 46.7031Z" fill="white"/>
<path d="M120 0C107.864 0.834383 22.6022 8.95321 16.642 67.4093C15.9177 73.6577 15.5076 79.9344 15.238 86.2157L57.1611 44.3348C58.626 42.87 61.0049 42.87 62.4698 44.3348C63.9346 45.7997 63.9346 48.1739 62.4698 49.6388L1.64884 110.399C-0.549615 112.595 -0.549615 116.157 1.64884 118.354C3.8473 120.55 7.41218 120.55 9.61298 118.354L23.003 104.978C32.8679 104.945 42.7258 104.385 52.5251 103.253C65.0596 101.978 75.2644 97.0486 83.5989 90.0009H59.9385L94.3427 78.5445C96.9795 75.0546 99.3514 71.3468 101.48 67.5007H82.4621L107.433 55.0294C117.255 31.1394 119.576 6.15475 120 0Z" fill="#FE0032"/>
</svg>
